# xmcd
#
# Track frame offsets: 
#        150
#        13757
#        26801
#        44219
#        65397
#        82719
#        97233
#        114860
#        123694
#        144296
#        157052
#        169309
#        188572
#        203486
#        217577
#        239975
#        260798
#        277204
#        296614
#        314799
#
# Disc length: 4407 seconds
#
# Revision: 2
# Processed by: cddbd v1.5.2PL0 Copyright (c) Steve Scherf et al.
# Submitted via: ExactAudioCopy v1.0b1
#
DISCID=38113514
DTITLE=Chris LeDoux - Anthology Volume I
DYEAR=2005
DGENRE=Country
TTITLE0=Airborne Cowboy
TTITLE1=He Rides The Wild Horses
TTITLE2=Life Is A Highway
TTITLE3=Sons Of The Pioneers
TTITLE4=The Ride
TTITLE5=Bareback Jack
TTITLE6=Hippies In Calgary
TTITLE7=Copenhagen
TTITLE8=Simple As Dirt
TTITLE9=Workin' Man's Dollar
TTITLE10=The Fever
TTITLE11=This Cowboy's Hat
TTITLE12=I've Got To Be A Rodeo Man
TTITLE13=Hard Times
TTITLE14=Tougher Than The Rest
TTITLE15=Take Me To The Rodeo
TTITLE16=The Passenger
TTITLE17=Little Long-Haired Outlaw
TTITLE18=Paint Me Back Home In Wyoming
TTITLE19=Western Skies
EXTD=
EXTT0=
EXTT1=
EXTT2=
EXTT3=
EXTT4=
EXTT5=
EXTT6=
EXTT7=
EXTT8=
EXTT9=
EXTT10=
EXTT11=
EXTT12=
EXTT13=
EXTT14=
EXTT15=
EXTT16=
EXTT17=
EXTT18=
EXTT19=
PLAYORDER=
